<?xml version="1.0" encoding="UTF-8" standalone="no"?>
<!DOCTYPE svg PUBLIC "-//W3C//DTD SVG 1.1//EN" "http://www.w3.org/Graphics/SVG/1.1/DTD/svg11.dtd">
<svg width="100%" height="100%" viewBox="0 0 1024 180" version="1.1" xmlns="http://www.w3.org/2000/svg" xmlns:xlink="http://www.w3.org/1999/xlink" xml:space="preserve" xmlns:serif="http://www.serif.com/" style="fill-rule:evenodd;clip-rule:evenodd;stroke-linejoin:round;stroke-miterlimit:2;">
    <g transform="matrix(1,0,0,1,-48.4873,3.51562)">
        <path d="M341.333,124.141L375.893,23.424L396.793,23.424L398.274,124.141L432.834,23.424L444.353,23.424L398.603,146.028L374.905,146.028L372.93,62.263L341.662,146.028L317.964,146.028L315.331,33.628C307.651,36.48 301.644,41.006 297.311,47.205C292.977,53.403 290.81,61.001 290.81,69.997C290.81,71.972 290.92,73.618 291.139,74.934C291.359,76.251 291.578,77.321 291.798,78.144C292.017,78.966 292.264,79.625 292.538,80.118C292.813,80.612 293.005,81.024 293.114,81.353C287.629,81.353 283.322,80.228 280.196,77.979C277.069,75.73 275.505,71.808 275.505,66.212C275.505,60.398 277.233,54.857 280.689,49.591C284.145,44.325 288.616,39.689 294.102,35.685C299.587,31.68 305.759,28.499 312.616,26.14C319.473,23.781 326.302,22.601 333.105,22.601C334.311,22.601 335.463,22.629 336.561,22.684C337.658,22.739 338.755,22.821 339.852,22.931L341.333,124.141Z" style="fill:rgb(204,53,52);fill-rule:nonzero;"/>
        <path d="M510.017,63.744L498.003,119.697C497.564,121.562 497.345,123.318 497.345,124.964C497.345,127.268 497.893,128.858 498.99,129.736C500.087,130.614 501.788,131.053 504.092,131.053C507.274,131.053 509.989,129.681 512.238,126.938C514.487,124.196 516.215,120.74 517.422,116.571L524.334,116.571C522.03,123.263 519.424,128.557 516.517,132.451C513.61,136.346 510.647,139.308 507.63,141.338C504.613,143.368 501.678,144.657 498.826,145.206C495.973,145.754 493.45,146.028 491.256,146.028C486.757,146.028 483.109,144.822 480.312,142.408C477.514,139.994 475.786,136.429 475.128,131.711C473.921,133.576 472.495,135.441 470.849,137.306C469.203,139.171 467.366,140.817 465.336,142.243C463.306,143.67 461.085,144.822 458.671,145.699C456.257,146.577 453.569,147.016 450.607,147.016C447.754,147.016 445.039,146.55 442.461,145.617C439.883,144.684 437.551,143.176 435.467,141.091C433.382,139.007 431.736,136.291 430.53,132.945C429.323,129.599 428.719,125.457 428.719,120.52C428.719,116.79 429.103,112.785 429.871,108.507C430.639,104.228 431.791,99.949 433.327,95.67C434.863,91.391 436.783,87.277 439.087,83.328C441.391,79.378 444.134,75.894 447.316,72.877C450.497,69.86 454.036,67.447 457.93,65.636C461.825,63.826 466.186,62.921 471.014,62.921C472.33,62.921 473.729,63.003 475.21,63.168C476.691,63.332 478.063,63.716 479.324,64.32C480.586,64.923 481.683,65.801 482.616,66.953C483.548,68.105 484.179,69.613 484.508,71.479L486.154,63.744L510.017,63.744ZM476.115,73.124C472.604,73.124 469.423,74.742 466.57,77.979C463.718,81.216 461.304,85.165 459.329,89.828C457.354,94.491 455.818,99.428 454.721,104.639C453.624,109.851 453.076,114.376 453.076,118.216C453.076,121.398 453.377,123.839 453.981,125.54C454.584,127.24 455.297,128.502 456.12,129.325C456.943,130.147 457.821,130.641 458.753,130.806C459.686,130.97 460.536,131.053 461.304,131.053C462.511,131.053 463.8,130.751 465.171,130.147C466.543,129.544 467.887,128.639 469.203,127.432C470.52,126.225 471.672,124.717 472.659,122.906C473.647,121.096 474.415,118.984 474.963,116.571L482.863,79.378C482.863,78.939 482.725,78.363 482.451,77.65C482.177,76.937 481.793,76.251 481.299,75.593C480.805,74.934 480.147,74.358 479.324,73.865C478.501,73.371 477.432,73.124 476.115,73.124Z" style="fill:rgb(204,53,52);fill-rule:nonzero;"/>
        <path d="M564.818,86.454C564.818,80.859 562.843,78.061 558.894,78.061C555.931,78.061 553.353,79.542 551.159,82.505C548.965,85.467 547.264,89.033 546.057,93.202L534.866,146.028L511.168,146.028L528.613,63.744L552.311,63.744L550.501,72.301C554.011,68.352 557.467,65.828 560.868,64.731C564.27,63.634 567.232,63.085 569.755,63.085C575.021,63.085 579.382,64.539 582.838,67.447C586.294,70.354 588.022,75.099 588.022,81.682C588.022,84.973 587.611,88.621 586.788,92.626C585.965,96.63 585.06,100.58 584.073,104.475C583.085,108.369 582.18,112.045 581.357,115.501C580.534,118.957 580.123,121.837 580.123,124.141C580.123,126.225 580.589,127.898 581.522,129.16C582.454,130.422 584.182,131.053 586.706,131.053C588.461,131.053 590.025,130.696 591.396,129.983C592.767,129.27 593.974,128.282 595.017,127.021C596.059,125.759 597.019,124.25 597.896,122.495C598.774,120.74 599.652,118.765 600.53,116.571L607.442,116.571C605.138,123.373 602.669,128.776 600.036,132.781C597.403,136.785 594.715,139.83 591.972,141.914C589.229,143.999 586.569,145.37 583.99,146.028C581.412,146.687 579.026,147.016 576.832,147.016C573.211,147.016 570.167,146.495 567.698,145.452C565.229,144.41 563.227,143.011 561.691,141.256C560.155,139.5 559.058,137.498 558.4,135.249C557.742,133 557.412,130.723 557.412,128.419C557.412,125.677 557.796,122.413 558.564,118.628C559.332,114.843 560.183,111.03 561.115,107.19C562.048,103.35 562.898,99.592 563.666,95.917C564.434,92.242 564.818,89.087 564.818,86.454Z" style="fill:rgb(204,53,52);fill-rule:nonzero;"/>
        <path d="M686.599,30.83L667.674,119.697C667.235,121.562 667.016,123.318 667.016,124.964C667.016,127.268 667.564,128.858 668.661,129.736C669.758,130.614 671.459,131.053 673.763,131.053C676.945,131.053 679.66,129.681 681.909,126.938C684.158,124.196 685.886,120.74 687.093,116.571L694.005,116.571C691.701,123.263 689.095,128.557 686.188,132.451C683.281,136.346 680.318,139.308 677.301,141.338C674.284,143.368 671.349,144.657 668.497,145.206C665.644,145.754 663.121,146.028 660.927,146.028C656.428,146.028 652.78,144.822 649.983,142.408C647.185,139.994 645.457,136.429 644.799,131.711C643.592,133.576 642.166,135.441 640.52,137.306C638.874,139.171 637.037,140.817 635.007,142.243C632.977,143.67 630.755,144.822 628.342,145.699C625.928,146.577 623.24,147.016 620.278,147.016C617.425,147.016 614.71,146.55 612.132,145.617C609.553,144.684 607.222,143.176 605.138,141.091C603.053,139.007 601.407,136.291 600.2,132.945C598.994,129.599 598.39,125.457 598.39,120.52C598.39,116.79 598.774,112.785 599.542,108.507C600.31,104.228 601.462,99.949 602.998,95.67C604.534,91.391 606.454,87.277 608.758,83.328C611.062,79.378 613.805,75.894 616.987,72.877C620.168,69.86 623.706,67.447 627.601,65.636C631.496,63.826 635.857,62.921 640.685,62.921C642.001,62.921 643.4,63.003 644.881,63.168C646.362,63.332 647.761,63.716 649.078,64.32C650.394,64.923 651.519,65.801 652.451,66.953C653.384,68.105 653.96,69.668 654.179,71.643L662.243,34.121L686.599,30.83ZM645.786,73.124C642.275,73.124 639.094,74.742 636.241,77.979C633.389,81.216 630.975,85.165 629,89.828C627.025,94.491 625.489,99.428 624.392,104.639C623.295,109.851 622.746,114.376 622.746,118.216C622.746,121.398 623.048,123.839 623.652,125.54C624.255,127.24 624.968,128.502 625.791,129.325C626.614,130.147 627.492,130.641 628.424,130.806C629.357,130.97 630.207,131.053 630.975,131.053C632.182,131.053 633.471,130.751 634.842,130.147C636.214,129.544 637.558,128.639 638.874,127.432C640.191,126.225 641.343,124.717 642.33,122.906C643.318,121.096 644.086,118.984 644.634,116.571L652.533,79.542C652.533,78.555 652.067,77.238 651.135,75.593C650.202,73.947 648.419,73.124 645.786,73.124Z" style="fill:rgb(204,53,52);fill-rule:nonzero;"/>
        <path d="M729.058,30.83L710.133,119.697C709.694,121.562 709.474,123.318 709.474,124.964C709.474,127.268 710.023,128.858 711.12,129.736C712.217,130.614 713.918,131.053 716.222,131.053C719.403,131.053 722.366,129.681 725.109,126.938C727.851,124.196 729.826,120.74 731.033,116.571L737.945,116.571C735.641,123.263 732.953,128.611 729.881,132.616C726.809,136.621 723.682,139.692 720.501,141.832C717.319,143.971 714.22,145.37 711.202,146.028C708.185,146.687 705.58,147.016 703.385,147.016C698.448,147.016 694.279,145.452 690.878,142.326C687.477,139.199 685.776,134.179 685.776,127.268C685.776,124.305 686.215,120.74 687.093,116.571L704.702,34.121L729.058,30.83Z" style="fill:rgb(204,53,52);fill-rule:nonzero;"/>
        <path d="M753.25,119.368C753.25,124.964 754.237,128.666 756.212,130.477C758.187,132.287 761.149,133.192 765.099,133.192C768.39,133.192 771.353,132.753 773.986,131.875C776.619,130.998 779.087,129.818 781.391,128.337C783.695,126.856 785.889,125.101 787.974,123.071C790.059,121.041 792.143,118.874 794.228,116.571L799.823,116.571C797.519,120.41 794.886,124.141 791.924,127.761C788.961,131.382 785.615,134.618 781.885,137.471C778.155,140.323 774.04,142.627 769.542,144.383C765.044,146.138 760.052,147.016 754.566,147.016C746.777,147.016 740.551,144.986 735.888,140.927C731.225,136.867 728.894,130.175 728.894,120.849C728.894,117.668 729.223,114.047 729.881,109.988C730.539,105.928 731.554,101.759 732.926,97.48C734.297,93.202 736.135,89.005 738.439,84.891C740.743,80.777 743.54,77.074 746.832,73.782C750.123,70.491 753.963,67.858 758.352,65.883C762.74,63.908 767.732,62.921 773.327,62.921C776.948,62.921 779.938,63.36 782.296,64.237C784.655,65.115 786.52,66.295 787.892,67.776C789.263,69.257 790.196,70.93 790.689,72.795C791.183,74.66 791.43,76.635 791.43,78.72C791.43,83.328 790.388,87.661 788.303,91.721C786.219,95.78 783.421,99.318 779.91,102.335C776.399,105.352 772.367,107.766 767.814,109.576C763.261,111.387 758.516,112.456 753.579,112.785C753.469,113.992 753.387,115.144 753.332,116.241C753.277,117.338 753.25,118.381 753.25,119.368ZM778.758,78.39C778.758,76.306 778.456,74.66 777.853,73.453C777.25,72.247 776.18,71.643 774.644,71.643C772.559,71.643 770.53,72.631 768.555,74.605C766.58,76.58 764.715,79.131 762.959,82.258C761.204,85.385 759.641,88.923 758.269,92.873C756.898,96.822 755.773,100.827 754.896,104.886C758.077,104.667 761.122,103.789 764.029,102.253C766.937,100.717 769.487,98.742 771.682,96.328C773.876,93.915 775.604,91.145 776.866,88.018C778.127,84.891 778.758,81.682 778.758,78.39Z" style="fill:rgb(204,53,52);fill-rule:nonzero;"/>
        <path d="M829.116,63.744L826.812,74.112C829.994,71.04 833.313,68.407 836.769,66.212C840.225,64.018 843.598,62.921 846.89,62.921C850.62,62.921 853.445,64.183 855.365,66.706C857.285,69.229 858.245,72.082 858.245,75.264C858.245,76.69 857.998,78.116 857.505,79.542C857.011,80.969 856.27,82.258 855.283,83.41C854.295,84.562 853.061,85.494 851.58,86.207C850.099,86.921 848.371,87.277 846.396,87.277C844.092,87.277 842.529,86.729 841.706,85.631C840.883,84.534 840.307,83.355 839.978,82.093C839.649,80.832 839.347,79.652 839.073,78.555C838.798,77.458 838.058,76.909 836.851,76.909C834.767,76.909 832.792,77.513 830.927,78.72C829.061,79.926 827.032,81.517 824.838,83.492L811.672,146.028L787.974,146.028L805.418,63.744L829.116,63.744Z" style="fill:rgb(204,53,52);fill-rule:nonzero;"/>
    </g>
</svg>
